<?xml version="1.0" standalone="no"?>
<!DOCTYPE svg PUBLIC "-//W3C//DTD SVG 1.1//EN" "http://www.w3.org/Graphics/SVG/1.1/DTD/svg11.dtd" >
<!--
2013-9-30: Created.
-->
<svg>
<metadata>
Created by iconfont
</metadata>
<defs>

<font id="icon" horiz-adv-x="1024" >
  <font-face
    font-family="icon"
    font-weight="500"
    font-stretch="normal"
    units-per-em="1024"
    ascent="896"
    descent="-128"
  />
    <missing-glyph />
    
    <glyph glyph-name="x" unicode="x" horiz-adv-x="1001"
d="M281 543q-27 -1 -53 -1h-83q-18 0 -36.5 -6t-32.5 -18.5t-23 -32t-9 -45.5v-76h912v41q0 16 -0.5 30t-0.5 18q0 13 -5 29t-17 29.5t-31.5 22.5t-49.5 9h-133v-97h-438v97zM955 310v-52q0 -23 0.5 -52t0.5 -58t-10.5 -47.5t-26 -30t-33 -16t-31.5 -4.5q-14 -1 -29.5 -0.5
t-29.5 0.5h-32l-45 128h-439l-44 -128h-29h-34q-20 0 -45 1q-25 0 -41 9.5t-25.5 23t-13.5 29.5t-4 30v167h911zM163 247q-12 0 -21 -8.5t-9 -21.5t9 -21.5t21 -8.5q13 0 22 8.5t9 21.5t-9 21.5t-22 8.5zM316 123q-8 -26 -14 -48q-5 -19 -10.5 -37t-7.5 -25t-3 -15t1 -14.5
t9.5 -10.5t21.5 -4h37h67h81h80h64h36q23 0 34 12t2 38q-5 13 -9.5 30.5t-9.5 34.5q-5 19 -11 39h-368zM336 498v228q0 11 2.5 23t10 21.5t20.5 15.5t34 6h188q31 0 51.5 -14.5t20.5 -52.5v-227h-327z" />
    

    
    <glyph glyph-name="setting" unicode="&#58906;" d="M1010.419703 276.175249c-1.793856-9.476839-8.966209-17.005302-18.315134-19.163455-53.009308-12.258185-97.049337-44.939515-124.028804-91.964528-26.952862-47.00557-33.067116-77.509305-17.229406-129.73783 2.807952-9.212826-0.069585-19.213597-7.29208-25.507954-48.643883-42.277896-104.111173-74.531484-164.909887-95.812159-9.086959-3.134387-19.092847-0.686638-25.63075 6.387477-37.033451 39.952944-87.116103 61.944817-141.023874 61.944817-53.92005 0-104.002702-21.99085-141.034107-61.944817-4.662183-5.031597-11.093662-7.739265-17.679661-7.739265-2.665713 0-5.345752 0.449231-7.941879 1.350764-60.82532 21.307282-116.312052 53.559846-164.92012 95.835695-7.235798 6.317892-10.090822 16.316617-7.306406 25.507954 15.862269 52.228525 9.746992 82.7077-17.20587 129.71327-26.977421 47.025013-71.01745 79.681784-123.995035 91.964528-9.345856 2.158153-16.533558 9.686616-18.327414 19.163455-6.112208 32.349779-9.203616 64.566528-9.203616 95.739505 0 31.172977 3.091408 63.389726 9.203616 95.739505 1.792832 9.476839 8.981559 17.005302 18.327414 19.165502 52.963259 12.268418 96.994078 44.927235 123.982756 91.973738 26.965142 46.981011 33.079396 101.631702 17.207917 153.869437-2.798742 9.215896 0.072655 19.213597 7.303336 25.507954 48.608068 42.300408 104.106056 74.543763 164.931377 95.833649 9.051143 3.171226 19.092847 0.679475 25.621541-6.373151 37.031405-39.950897 87.114057-61.954027 141.034107-61.954027 53.907771 0 103.990422 22.00313 141.023874 61.954027 6.537903 7.064906 16.591887 9.544377 25.606191 6.373151 60.871369-21.289885 116.360148-53.53324 164.955936-95.821369 7.224542-6.293333 10.102079-16.292058 7.294127-25.504884-15.862269-52.230572-9.746992-106.881263 17.20587-153.884786 26.979468-47.046502 71.019497-79.706343 124.028804-91.973738 9.347902-2.160199 16.521279-9.689686 18.315134-19.179828 6.114255-32.405037 9.205663-64.621786 9.205663-95.725178C1019.625366 340.814432 1016.533958 308.595636 1010.419703 276.175249zM965.528284 443.631122c-58.553581 17.823947-108.73447 57.547671-139.323139 110.842481-30.541597 53.250808-39.651069 116.782773-25.77299 176.626743-37.244252 30.336936-78.691223 54.411237-123.535571 71.759347-44.914956-42.573631-102.856599-65.826218-164.90784-65.826218-61.081147 0-120.312156 23.811312-164.897607 65.837474-44.830021-17.353227-86.276992-41.434691-123.533524-71.785953 13.865799-59.863413 4.744048-123.386168-25.809829-176.612417-30.573319-53.29481-80.742952-93.01751-139.262764-110.842481-3.838422-24.299429-5.771447-48.356334-5.771447-71.715345 0-23.356964 1.933025-47.406706 5.771447-71.701019 58.543348-17.839297 108.710934-57.552787 139.2863-110.847597 31.013341-54.079686 39.98262-92.067882 25.809829-152.46546 37.255509-30.326702 78.691223-54.411237 123.508965-71.771627 44.598754 42.012859 103.81646 65.835428 164.897607 65.835428 62.050218 0 119.992885-23.252587 164.90784-65.813938 44.799322 17.3389 86.243223 41.422412 123.512035 71.749114-13.853519 59.854203-4.722558 99.219769 25.797549 152.46546 30.56411 53.29481 80.742952 93.0083 139.323139 110.847597 3.823072 24.340361 5.759167 48.390104 5.759167 71.701019C971.287451 395.227716 969.352379 419.287691 965.528284 443.631122zM657.012721 420.254715c-31.91692 61.286832-91.473341 96.67276-145.011698 96.67276-80.088036 0-145.011698-64.921615-145.011698-145.009651s64.924685-145.014768 145.011698-145.014768c71.809489 0 131.015939 52.322669 142.576229 120.843252 0 0-1.930979 25.009603 23.584138 24.171516 26.954909-0.887206 25.51921-24.171516 25.51921-24.171516-11.917424-95.350648-93.100398-169.178097-191.679577-169.178097-106.784048 0-193.349613 86.562495-193.349613 193.349613 0 106.782002 86.564541 193.346543 193.349613 193.346543 81.122599 0 150.466943-50.012044 179.162496-120.843252 0 0 4.470825-16.192797-9.981329-24.166399C667.030889 412.447912 657.012721 420.254715 657.012721 420.254715z"  horiz-adv-x="1024" />

    
    <glyph glyph-name="jiantou" unicode="&#58954;" d="M151.476947 696.446082l718.53082 0c39.763632 0 71.922053-31.909757 71.922053-71.675436 0-18.485003-7.095605-35.205826-18.486026-47.872311L568.114019 102.772944c-23.810289-31.400151-68.641333-37.993313-100.29731-14.183024-5.570879 4.052293-10.384511 8.873088-14.183024 14.190187L94.235245 581.958584c-23.547299 31.407314-17.217127 76.479859 14.436804 100.041484 12.922311 9.881045 27.864628 14.43885 42.804898 14.43885l0 0L151.476947 696.446082zM151.476947 696.446082"  horiz-adv-x="1024" />

    
    <glyph glyph-name="weibiaoti37" unicode="&#58935;" d="M532 763.2l0-303.2 303.2 0c26.4 0 48-21.6 48-48 0-26.4-21.6-48-48-48l-303.2 0 0-303.2c0-26.4-21.6-48-48-48-26.4 0-48 21.6-48 48l0 303.2-303.2 0c-26.4 0-48 21.6-48 48 0 26.4 21.6 48 48 48l303.2 0 0 303.2c0 26.4 21.6 48 48 48C510.4 811.2 532 789.6 532 763.2z"  horiz-adv-x="1024" />

    
    <glyph glyph-name="loading" unicode="&#58910;" d="M511.573333 895.146667c-278.506658 0-505.023984-222.591993-511.423984-499.562651C6.058683 637.2693409999999 189.82401 831.189335 415.65867 831.189335c229.54666 0 415.658654-200.426661 415.658654-447.615986 0-52.970665 42.943999-95.935997 95.914664-95.935997 52.949331 0 95.914664 42.965332 95.914664 95.935997C1023.146651 666.112007 794.111991 895.146667 511.573333 895.146667zM511.573333-127.99996699999997c278.506658 0 505.023984 222.591993 511.402651 499.562651-5.888-241.663992-189.653327-435.626653-415.487987-435.626653-229.54666 0-415.658654 200.447994-415.658654 447.637319 0 52.949331-42.965332 95.914664-95.935997 95.914664C42.965348 479.488013 0.000016 436.544015 0.000016 383.57335 0.000016 101.03469299999995 229.034676-127.99996699999997 511.573333-127.99996699999997z"  horiz-adv-x="1024" />

    
    <glyph glyph-name="close" unicode="&#58936;" d="M877.216 404.192M575.328 385.504 946.784 755.328c17.568 17.504 17.664 45.824 0.192 63.424-17.504 17.632-45.792 17.664-63.36 0.192L512.032 449.056 143.712 818.784C126.304 836.288 97.92 836.352 80.384 818.88 62.848 801.376 62.816 772.992 80.288 755.424l368.224-369.632L77.216 16.192c-17.568-17.504-17.664-45.824-0.192-63.424 8.736-8.8 20.256-13.216 31.776-13.216 11.424 0 22.848 4.352 31.584 13.056l371.36 369.696 371.68-373.088C892.192-59.616 903.68-64 915.168-64c11.456 0 22.912 4.384 31.648 13.088 17.504 17.504 17.568 45.824 0.096 63.392L575.328 385.504 575.328 385.504zM575.328 385.504"  horiz-adv-x="1024" />

    
    <glyph glyph-name="vertification" unicode="&#58901;" d="M964.487963 538.651477c-4.886424-70.287753-4.001239-141.573257-15.95379-210.638125-20.435997-118.087723-85.131225-211.52331-181.247949-282.803698-66.926098-49.631739-134.379214-98.542028-201.627662-147.743966-30.009294-21.955649-60.985639-23.347384-89.618548-2.312737-76.064478 55.874082-153.239274 110.382012-227.129166 169.024214-94.745455 75.194643-153.822575 174.918623-163.748923 295.150232-9.220247 111.696997-5.526008 224.519662-5.771608 336.851127-0.056283 24.462819 15.401189 43.941998 39.331874 51.668176 127.701954 41.235277 255.465308 82.311937 383.842662 121.367511 16.209624 4.932474 37.126588 0.844251 54.170229-4.47709 118.44589-36.983321 236.472213-75.302094 354.559936-113.421316 32.716015-10.560815 48.403738-32.301564 48.547004-66.603748 0.19955-48.582821 0.051167-97.165642 0.051167-145.748463C961.428192 538.86126 962.958077 538.7538099999999 964.487963 538.651477zM123.577914 537.029491c0-37.510338-0.603768-75.036027 0.10745-112.536132 2.563454-135.136481 57.598401-245.743627 162.060421-329.841283 66.163714-53.264578 137.121751-100.542647 205.1377-151.550772 20.40018-15.298856 36.870754-14.966272 57.086734 0.2763 63.804927 48.112087 129.088572 94.259371 192.878149 142.386809 100.864998 76.105411 162.587438 176.397342 170.697367 303.301094 5.863709 91.701034 2.604387 183.990486 3.300255 276.024104 0.1842 24.667486-12.367001 38.405756-35.929286 45.886334-111.763514 35.468785-223.07676 72.360006-334.983541 107.363174-14.459721 4.52314-32.685315 5.050157-47.032469 0.578184-112.766382-35.156668-224.898296-72.344656-337.500944-108.023225-24.92332-7.895028-36.15442-22.912467-35.898586-48.536771C123.920732 620.579663 123.618848 578.802019 123.577914 537.029491zM519.536861 588.7079c70.75337 0.01535 141.511857 0.081867 212.265228-0.040933 13.61547-0.025583 29.789277 1.739669 28.576625-19.187528-0.997751-17.186909-10.985499-24.72377-29.001309-24.467936-51.990526 0.741918-104.052686-1.141018-155.976695 0.844251-26.202488 1.002868-33.95425-7.976895-33.723999-33.263499 0.972168-106.549623 0.639584-213.119712 0.01535-319.674452-0.056283-10.003098-2.911388-22.426383-9.296997-29.113876-4.38499-4.594773-19.310328-4.502673-25.511737-0.414451-5.771608 3.801689-8.616479 15.651906-8.662529 23.976735-0.547484 108.263709-0.3377 216.527417-0.383751 324.791126-0.01535 32.889982-0.158617 33.033248-32.644381 33.084415-49.442422 0.081867-98.889962 0.020467-148.332384 0.025583-5.116674 0-11.911617-2.041553-15.022555 0.465617-8.790446 7.086594-20.61508 14.945805-22.932934 24.513986-3.883556 16.03054 10.269165 18.455844 23.250167 18.450727C374.617299 588.6720829999999 447.074522 588.69255 519.536861 588.7079z"  horiz-adv-x="1024" />

    
    <glyph glyph-name="tree-arrow" unicode="&#58881;" d="M336.325 724.866c0 0 387.574-297.604 387.574-297.604 26.938-20.681 26.938-65.523 0-86.203 0 0-387.574-297.604-387.574-297.604-24.968-19.175-56.196 4.808-56.196 43.161 0 0 0 595.151 0 595.151 0 38.294 31.225 62.278 56.196 43.103 0 0 0 0 0 0z"  horiz-adv-x="1024" />

    
    <glyph glyph-name="duihao" unicode="&#58880;" d="M963.648 667.34l-64.769 68.823-524.665-564.53L125.15 426.15l-64.8-68.829 314.358-323.438 64.79 68.771-0.324 0.324 524.474 564.36z"  horiz-adv-x="1024" />

    
    <glyph glyph-name="password" unicode="&#58979;" d="M510.932 333.472c-49.95 0-90.586-40.638-90.586-90.591 0-19.861 6.31-38.719 18.26-54.527 0.251-0.338 0.525-0.663 0.799-0.994 22.38-26.08 24.009-44.694 24.105-46.401v-51.737c0-26.153 21.276-47.421 47.421-47.421 26.153 0 47.423 21.276 47.423 47.421v52.713c0 0.594-0.02 1.189-0.079 1.778 0 0.039 0.117 0.005 0.124 0.052 0.131 1.189 0.529 3.734 1.74 7.414 2.439 7.394 8.159 19.522 21.628 35.265 0.195 0.229 0.385 0.465 0.569 0.699 12.56 16.052 19.198 35.327 19.198 55.738-0.001 49.951-40.642 90.591-90.601 90.591v0zM550.294 212.716c-31.677-37.216-33.227-63.865-32.927-71.319v-52.179c0-3.543-2.891-6.427-6.433-6.427s-6.428 2.881-6.428 6.427v51.989c0 3.824-1.052 34.19-33.534 72.31-6.309 8.546-9.637 18.678-9.637 29.362 0 27.347 22.25 49.607 49.597 49.607 27.357 0 49.612-22.257 49.612-49.607 0-11.035-3.543-21.456-10.252-30.163v0zM550.294 212.716zM855.805 506.823h-2.577v0.303h-47.701v131.423c0 0.869-0.058 1.74-0.164 2.607-8.963 69.984-43.106 134.417-96.148 181.45-53.508 47.435-122.4 73.561-193.97 73.561-78.131 0-151.584-30.428-206.834-85.669-55.247-55.247-85.668-128.703-85.668-206.831v-96.81l-55.836-0.034c-38.592 0-69.996-31.402-69.996-69.996v-496.03c0-38.602 31.403-69.998 69.996-69.998h427.676c0.621 0 1.235 0.027 1.844 0.085h257.526c0.607-0.058 1.222-0.085 1.85-0.085 38.588 0 69.989 31.397 69.989 69.998v496.03c0.001 38.595-31.395 69.996-69.989 69.996v0zM263.767 603.6659999999999c0 67.172 26.159 130.322 73.658 177.815 47.493 47.499 110.644 73.658 177.815 73.658 61.531 0 120.757-22.46 166.746-63.236 45.297-40.158 74.562-95.045 82.506-154.685v-130.096l-500.726-0.303v96.843h0.001zM884.769-59.202999999999975c0-15.241-11.827-27.767-26.785-28.886l-691.075-0.08c-15.972 0-28.969 12.993-28.969 28.965v496.03c0 15.972 12.997 28.97 28.969 28.97l76.357 0.038c1.045 0 2.067 0.105 3.073 0.255 1.099-0.176 2.222-0.298 3.375-0.298h387.257c0.372-0.005 0.948-0.02 1.701-0.02 1.616 0 4.08 0.038 7.238 0.202h136.886c0.851-0.103 1.712-0.176 2.589-0.176h70.421c15.965 0 28.964-13.005 28.964-28.97v-496.03zM884.769-59.202999999999975z"  horiz-adv-x="1024" />

    
    <glyph glyph-name="toast-error" unicode="&#59182;" d="M536.96-128a512 512 0 1 1 0 1024 512 512 0 0 1 0-1024zM292.096 576.256a37.824 37.824 0 0 0 0 53.696 38.144 38.144 0 0 0 53.824 0l191.232-190.656 191.232 190.656a38.144 38.144 0 0 0 53.824 0 37.888 37.888 0 0 0 0-53.696L590.976 385.6l191.232-190.656a37.888 37.888 0 0 0 0-53.696 38.144 38.144 0 0 0-53.824 0l-191.232 190.72-191.232-190.72a38.144 38.144 0 0 0-53.76 0 37.888 37.888 0 0 0 0 53.76l191.168 190.592-191.232 190.72z"  horiz-adv-x="1088" />

    
    <glyph glyph-name="username" unicode="&#58925;" d="M938.7008-88.26880000000006c0 205.2096-134.5536 378.368-316.8256 428.9536 98.9184 44.4416 168.3456 146.8416 168.3456 265.8304C790.2208 766.1568 665.3952 896 512 896S233.7792 766.1568 233.7792 606.5152c0-118.784 69.2224-221.0816 167.8336-265.6256-15.872-4.1984-31.9488-9.1136-47.9232-15.2576-162.7136-61.8496-268.288-226.6112-268.288-406.8352v-26.624c0-11.1616 8.4992-20.1728 18.944-20.1728s18.944 9.0112 18.944 20.1728v0.3072 0.1024c0 1.1264-0.1024 2.2528-0.3072 3.2768-1.024 13.5168 0 35.2256 0 35.2256 9.728 214.528 180.5312 385.9456 389.12 385.9456s379.392-171.4176 389.12-385.9456c0 0 0.7168-22.016-0.1024-35.5328-0.1024-1.024-0.2048-2.048-0.2048-3.072 0-11.1616 8.4992-20.1728 18.944-20.1728s18.944 9.0112 18.944 20.1728v19.2512zM270.848 606.5152c0 138.3424 108.1344 250.88 241.152 250.88s241.152-112.5376 241.152-250.88-108.1344-250.88-241.152-250.88-241.152 112.5376-241.152 250.88z"  horiz-adv-x="1024" />

    
    <glyph glyph-name="toast-warning" unicode="&#58993;" d="M512-128c282.624 0 512 229.376 512 512S794.624 896 512 896 0 666.624 0 384s229.376-512 512-512zM459.776 662.016c0 29.184 23.04 52.224 52.224 52.224s52.224-23.04 52.224-52.224v-335.872c0-29.184-23.04-52.224-52.224-52.224s-52.224 23.04-52.224 52.224V662.016z m0-496.64c0 29.184 23.04 52.224 52.224 52.224s52.224-23.04 52.224-52.224v-41.984c0-29.184-23.04-52.224-52.224-52.224s-52.224 23.04-52.224 52.224v41.984z"  horiz-adv-x="1024" />

    
    <glyph glyph-name="toast-success" unicode="&#58945;" d="M510.52864 895.68c282.432 0 512.32-226.304 512.32-510.528a511.872 511.872 0 0 0-512.32-512.32C228.16064-127.168 0.00064 102.72000000000003 0.00064 385.152A509.952 509.952 0 0 0 510.52864 895.68z m277.76-375.424a39.232 39.232 0 0 1-5.888 58.496c-15.616 11.712-37.056 7.808-50.688-5.824l-278.912-282.88a18.88 18.88 0 0 0-27.328 0L322.11264 391.552c-15.616 15.616-44.864 13.696-58.496-5.76-11.712-15.68-7.872-37.12 5.824-50.816l142.4-140.416a37.76 37.76 0 0 1 54.592 0l321.856 325.76z"  horiz-adv-x="1024" />

    
    <glyph glyph-name="logout" unicode="&#58912;" d="M512.0068266666666-50.99633777777785C271.08920888888883-50.99633777777785 75.0933333333333 144.99953777777785 75.0933333333333 385.91715555555555c0 138.36401777777778 66.61575111111111 269.9935288888889 178.21013333333332 352.11832888888887 12.8512 9.392355555555556 30.833777777777776 6.650311111111111 40.26823111111112-6.130346666666666 9.419662222222222-12.80910222222222 6.678755555555555-30.833777777777776-6.130346666666666-40.26823111111112-96.90112-71.29770666666667-154.75825777777777-185.59203555555553-154.75825777777777-305.7197511111111 0-209.15655111111113 170.16832-379.3237333333333 379.3237333333333-379.3237333333333s379.31007999999997 170.16832 379.31007999999997 379.3237333333333c0 120.10040888888886-57.815039999999996 234.3651555555556-154.6592711111111 305.6776533333333-12.822755555555554 9.419662222222222-15.550008888888891 27.445475555555554-6.130346666666666 40.25344 9.419662222222222 12.79431111111111 27.41703111111111 15.536355555555556 40.26823111111112 6.115555555555556C882.3182222222222 655.8549333333333 948.9066666666668 524.2390755555556 948.9066666666668 385.91715555555555c0-240.91761777777774-195.99587555555553-436.91349333333324-436.89984-436.91349333333324zM512.0068266666666 374.0228266666667c-15.916373333333333 0-28.79488 12.893297777777779-28.79488 28.79488V816.7424000000001c0 15.901582222222224 12.878506666666667 28.79488 28.79488 28.79488 15.916373333333333 0 28.79488-12.893297777777779 28.79488-28.79488v-413.9258311111111c0-15.901582222222224-12.878506666666667-28.793742222222217-28.79488-28.793742222222217z"  horiz-adv-x="1024" />

    
    <glyph glyph-name="back" unicode="&#59700;" d="M376.064 384l302.293333 302.336L618.026667 746.666667 256 384.64l0.597333-0.64-0.597333-0.597333 362.026667-362.069334 60.330666 60.373334L376.064 384z"  horiz-adv-x="1024" />

    
    <glyph glyph-name="first-page" unicode="&#59723;" d="M502.101333 362.666667l259.669334-259.626667L701.397333 42.666667l-319.36 319.36 0.64 0.597333-0.64 0.64L701.44 682.666667l60.373333-60.330667-259.669333-259.669333zM341.333333 682.666667H256v-640h85.333333V682.666667z"  horiz-adv-x="1024" />

    
    <glyph glyph-name="forward" unicode="&#59725;" d="M643.669333 384L341.333333 686.336 401.664 746.666667l362.026667-362.026667-0.597334-0.64 0.597334-0.597333L401.664 21.333333 341.333333 81.706667 643.669333 384z"  horiz-adv-x="1024" />

    
    <glyph glyph-name="last-page" unicode="&#59733;" d="M524.202667 362.666667L264.533333 103.04 324.864 42.666667l319.36 319.36-0.597333 0.597333 0.597333 0.64L324.864 682.666667 264.533333 622.336l259.669334-259.669333zM684.970667 682.666667h85.333333v-640h-85.333333V682.666667z"  horiz-adv-x="1024" />

    
    <glyph glyph-name="mianbaoxieshouye" unicode="&#58934;" d="M1011.612903 473.290323l-88.774193 77.419354V650.322581c0 19.612903-16 35.612903-35.612904 35.612903-19.612903 0-35.612903-16-35.612903-35.612903V612.129032L535.741935 887.225806c-2.064516 2.064516-4.645161 3.612903-7.225806 5.161291-0.516129 0-1.032258 0.516129-1.548387 0.516129-0.516129 0-1.032258 0.516129-1.548387 0.516129h-0.516129c-0.516129 0-1.032258 0.516129-1.032258 0.516129h-0.516129c-0.516129 0-0.516129 0-1.032258 0.516129H515.612903c-5.677419 0.516129-11.354839-0.516129-16.516129-2.580645-0.516129 0-0.516129-0.516129-1.032258-0.516129h-0.516129c-0.516129 0-0.516129-0.516129-1.032258-0.516129s-0.516129-0.516129-1.032258-0.516129c0 0-0.516129 0-0.516129-0.516129-0.516129 0-0.516129-0.516129-1.032258-0.516129h-0.516129c-0.516129-0.516129-1.032258-0.516129-1.032258-1.032258-1.548387 1.032258-2.064516 0.516129-2.064516 0-0.516129-0.516129-1.032258-0.516129-1.032258-1.032259L161.032258 602.322581v36.129032c0 19.612903-16 35.612903-35.612903 35.612903s-35.612903-16-35.612903-35.612903V539.870968l-77.419355-67.096774c-14.967742-12.903226-16.516129-35.612903-3.612903-50.580646 7.225806-8.258065 17.032258-12.387097 26.838709-12.387096 8.258065 0 16.516129 3.096774 23.225807 8.774193l452.645161 393.806452L965.16129 419.096774c6.709677-5.677419 14.967742-8.774194 23.225807-8.774193 9.806452 0 20.129032 4.129032 26.838709 12.387096 12.903226 14.967742 11.354839 37.677419-3.612903 50.580646zM892.903226 416.516129c-19.612903 0-35.612903-16-35.612903-35.612903v-355.096774c0-44.903226-30.967742-82.580645-67.096775-82.580646H233.806452c-36.645161 0-67.096774 37.677419-67.096775 82.580646V380.903226c0 19.612903-16 35.612903-35.612903 35.612903s-35.612903-16-35.612903-35.612903v-355.096774c0-85.16129 62.451613-153.806452 138.83871-153.806452h556.387096c76.387097 0 138.83871 69.16129 138.83871 153.806452V380.903226c-0.516129 19.612903-16.516129 35.612903-36.645161 35.612903z"  horiz-adv-x="1024" />

    


  </font>
</defs>
</svg>
